<svg width="18" height="19" viewBox="0 0 18 19" fill="none" xmlns="http://www.w3.org/2000/svg">
<path d="M8.923 4.99153C8.01835 4.99153 7.13401 5.25979 6.38182 5.76239C5.62963 6.26499 5.04337 6.97935 4.69718 7.81514C4.35098 8.65093 4.2604 9.57061 4.43689 10.4579C4.61338 11.3451 5.04901 12.1602 5.68869 12.7998C6.32838 13.4395 7.14339 13.8752 8.03066 14.0516C8.91793 14.2281 9.8376 14.1376 10.6734 13.7914C11.5092 13.4452 12.2235 12.8589 12.7261 12.1067C13.2287 11.3545 13.497 10.4702 13.497 9.56553C13.4981 8.96457 13.3805 8.36931 13.151 7.81389C12.9215 7.25847 12.5846 6.75382 12.1597 6.32888C11.7347 5.90393 11.2301 5.56705 10.6746 5.33756C10.1192 5.10807 9.52396 4.99048 8.923 4.99153ZM8.923 12.5385C8.335 12.5385 7.7602 12.3642 7.27129 12.0375C6.78238 11.7108 6.40133 11.2465 6.17631 10.7032C5.95129 10.16 5.89241 9.56223 6.00713 8.98553C6.12184 8.40882 6.40499 7.87909 6.82077 7.4633C7.23655 7.04752 7.76629 6.76437 8.343 6.64966C8.9197 6.53494 9.51747 6.59382 10.0607 6.81884C10.604 7.04386 11.0683 7.42491 11.395 7.91382C11.7216 8.40273 11.896 8.97753 11.896 9.56553C11.8944 10.3535 11.5807 11.1088 11.0235 11.666C10.4663 12.2232 9.711 12.5369 8.923 12.5385ZM14.75 4.80453C14.75 5.01557 14.6874 5.22186 14.5702 5.39733C14.4529 5.57279 14.2863 5.70955 14.0913 5.79031C13.8964 5.87107 13.6818 5.8922 13.4748 5.85103C13.2679 5.80986 13.0777 5.70824 12.9285 5.55902C12.7793 5.40979 12.6777 5.21967 12.6365 5.01269C12.5953 4.80572 12.6165 4.59118 12.6972 4.39621C12.778 4.20124 12.9147 4.0346 13.0902 3.91735C13.2657 3.80011 13.472 3.73753 13.683 3.73753C13.8233 3.737 13.9623 3.76423 14.0921 3.81766C14.2218 3.87108 14.3397 3.94964 14.439 4.04881C14.5383 4.14798 14.6169 4.26581 14.6705 4.39551C14.724 4.52521 14.7514 4.66422 14.751 4.80453H14.75ZM17.775 5.88653C17.8045 4.4996 17.2868 3.15679 16.334 2.14853C15.3237 1.19894 13.9823 0.681816 12.596 0.707531C11.123 0.623531 6.709 0.623531 5.236 0.707531C3.85013 0.679883 2.50847 1.19566 1.498 2.14453C0.549305 3.15497 0.034171 4.49683 0.063 5.88253C-0.021 7.35553 -0.021 11.7695 0.063 13.2425C0.0335268 14.6295 0.551177 15.9723 1.504 16.9805C2.51461 17.9289 3.85534 18.4455 5.241 18.4205C6.714 18.5045 11.128 18.5045 12.601 18.4205C13.9879 18.45 15.3307 17.9324 16.339 16.9795C17.2865 15.9687 17.8018 14.6278 17.775 13.2425C17.863 11.7695 17.863 7.35953 17.775 5.88653ZM15.875 14.8205C15.7237 15.2055 15.4946 15.5551 15.2021 15.8476C14.9096 16.1401 14.56 16.3692 14.175 16.5205C13.001 16.9865 10.214 16.8785 8.917 16.8785C7.62 16.8785 4.829 16.9785 3.659 16.5205C3.27403 16.3692 2.9244 16.1401 2.6319 15.8476C2.33941 15.5551 2.11034 15.2055 1.959 14.8205C1.493 13.6465 1.601 10.8595 1.601 9.56253C1.601 8.26553 1.501 5.47453 1.959 4.30453C2.11034 3.91957 2.33941 3.56993 2.6319 3.27743C2.9244 2.98494 3.27403 2.75588 3.659 2.60453C4.833 2.13853 7.62 2.24653 8.917 2.24653C10.214 2.24653 13.005 2.14653 14.175 2.60453C14.56 2.75588 14.9096 2.98494 15.2021 3.27743C15.4946 3.56993 15.7237 3.91957 15.875 4.30453C16.341 5.47853 16.233 8.26553 16.233 9.56253C16.233 10.8595 16.343 13.6525 15.875 14.8205Z" fill="#FDC55E"/>
</svg>
