<svg width="21" height="17" viewBox="0 0 21 17" fill="none" xmlns="http://www.w3.org/2000/svg">
<path d="M18.285 4.41369C18.298 4.59469 18.298 4.77569 18.298 4.95669C18.3092 6.52043 18.0094 8.0708 17.4161 9.51768C16.8229 10.9646 15.9479 12.2791 14.8422 13.3848C13.7364 14.4906 12.4219 15.3656 10.975 15.9588C9.52812 16.5521 7.97775 16.8519 6.414 16.8407C4.14 16.8468 1.91267 16.1957 0 14.9657C0.335031 15.0027 0.67194 15.02 1.009 15.0177C2.88915 15.0224 4.71606 14.3936 6.195 13.2327C5.32305 13.2166 4.47794 12.9284 3.7778 12.4084C3.07765 11.8885 2.55748 11.1627 2.29 10.3327C2.551 10.3741 2.81474 10.3958 3.079 10.3977C3.45018 10.3968 3.81976 10.349 4.179 10.2557C3.23306 10.0644 2.38256 9.55142 1.77203 8.80399C1.16151 8.05655 0.82864 7.12077 0.83 6.15569V6.10669C1.4088 6.42961 2.0557 6.61121 2.718 6.63669C1.83156 6.04542 1.20417 5.13816 0.963878 4.10007C0.723589 3.06198 0.888517 1.97132 1.425 1.05069C2.4741 2.34199 3.78289 3.39839 5.26649 4.15139C6.75009 4.90439 8.37539 5.33717 10.037 5.42169C9.97112 5.10693 9.93761 4.78626 9.937 4.46468C9.93905 3.62817 10.192 2.8115 10.6631 2.12026C11.1342 1.42902 11.8019 0.894996 12.5797 0.58722C13.3575 0.279444 14.2098 0.212074 15.0263 0.393815C15.8429 0.575556 16.5861 0.998053 17.16 1.60669C18.0954 1.42643 18.9924 1.08502 19.811 0.597684C19.4992 1.56218 18.8464 2.37991 17.975 2.89769C18.8044 2.80312 19.6151 2.58504 20.38 2.25068C19.8081 3.08341 19.0999 3.81366 18.285 4.41068V4.41369Z" fill="#FDC55E"/>
</svg>
